# xmcd
# 
# Track frame offsets:
#     150
#     18112
#     48225
#     66185
# 
# Disc length: 1012
# 
# Revision: 0
# Processed by: cddbd v1.5.2PL0 Copyright (c) Steve Scherf et al.
# Submitted via: fre:ac v1.0.17
# 
DISCID=2803f204
DTITLE=Look Twice - Go away (Single)
DYEAR=1995
DGENRE=Eurodance
TTITLE0=Go Away (Radio Mix)
TTITLE1=Go Away (Extended)
TTITLE2=Go Away (Instrumental)
TTITLE3=Go Away (A Capella)
EXTD=
EXTT0=
EXTT1=
EXTT2=
EXTT3=
PLAYORDER=
